<svg class="icon" viewBox="0 0 1024 1024" xmlns="http://www.w3.org/2000/svg" width="200" height="200"><defs><style/></defs><path d="M874.046 149.966C777.326 53.248 648.766 0 512.012 0S246.664 53.248 149.98 149.966c-199.615 199.614-199.615 524.42 0 724.068C246.663 970.752 375.26 1024 512.01 1024s265.315-53.248 362-149.966c199.648-199.614 199.648-524.454.034-724.068zM850.692 850.68c-90.475 90.475-210.746 140.288-338.68 140.288s-248.204-49.813-338.68-140.288c-186.764-186.732-186.764-490.628 0-677.36C263.81 82.845 384.08 33.032 512.013 33.032S760.217 82.845 850.66 173.32c186.763 186.732 186.763 490.628.032 677.36z"/><path d="M759.59 264.423c-12.916-12.915-33.793-12.915-46.708 0l-200.87 200.87-200.87-200.87c-12.914-12.915-33.79-12.915-46.706 0s-12.916 33.792 0 46.708L465.306 512l-200.87 200.87c-12.916 12.915-12.916 33.79 0 46.707 6.44 6.44 14.897 9.678 23.353 9.678s16.912-3.237 23.353-9.678l200.87-200.87 200.87 200.87c6.44 6.44 14.896 9.678 23.352 9.678s16.913-3.237 23.354-9.678c12.915-12.916 12.915-33.792 0-46.708L558.72 512l200.87-200.87c12.882-12.882 12.882-33.79 0-46.707z"/></svg>